# xmcd
# 
# Track frame offsets:
#     150
#     15821
#     33572
#     50997
#     64559
#     80575
#     94670
#     111138
#     126572
#     143186
#     161299
#     175618
# 
# Disc length: 2538
# 
# Revision: 3
# Processed by: cddbd v1.5.2PL0 Copyright (c) Steve Scherf et al.
# Submitted via: fre:ac v1.0.27
# 
DISCID=9809e80c
DTITLE=Mindy Smith - Long Island Shores
DYEAR=2006
DGENRE=Newgrass
TTITLE0=Out Loud
TTITLE1=Little Devil
TTITLE2=Edge Of Love
TTITLE3=Please Stay
TTITLE4=Tennessee
TTITLE5=I'm Not The Only One Asking
TTITLE6=What If The World Stops Turning
TTITLE7=You Just Forgot
TTITLE8=You Know I Love You Baby
TTITLE9=Out Of Control
TTITLE10=Long Island Shores
TTITLE11=Peace Of Mind
EXTD=
EXTT0=
EXTT1=
EXTT2=
EXTT3=
EXTT4=
EXTT5=
EXTT6=
EXTT7=
EXTT8=
EXTT9=
EXTT10=
EXTT11=
PLAYORDER=
